<svg viewBox="0 0 600 400" xmlns="http://www.w3.org/2000/svg">
<g transform="translate(72, 364)">
<g>
<g>
<path d="M48,0 L48,0 L67.2,0 L81.6,0 L86.4,0 L100.8,0 L105.6,-2.3611112 L110.4,-7.0833335 L115.2,-4.7222223 L120,-9.444445 L124.8,-14.166667 L129.6,-14.166667 L134.4,-16.527779 L139.2,-16.527779 L144,-28.333334 L148.8,-18.88889 L153.6,-23.61111 L158.4,-25.972221 L163.2,-47.22222 L168,-30.694445 L172.8,-44.86111 L177.6,-56.666668 L182.4,-66.111115 L187.2,-35.416668 L192,-33.055557 L196.8,-63.75 L201.6,-44.86111 L206.4,-75.55556 L211.2,-42.5 L216,-68.47222 L220.8,-61.38889 L225.6,-73.19444 L230.4,-49.583332 L235.2,-37.77778 L240,-54.305557 L244.8,-75.55556 L249.6,-70.833336 L254.4,-51.944443 L259.2,-75.55556 L264,-68.47222 L268.8,-47.22222 L273.6,-87.361115 L278.4,-54.305557 L283.2,-44.86111 L288,-49.583332 L292.8,-59.02778 L297.6,-44.86111 L302.4,-61.38889 L307.2,-47.22222 L312,-33.055557 L316.8,-21.25 L321.6,-35.416668 L326.4,-35.416668 L331.2,-14.166667 L336,-25.972221 L340.8,-14.166667 L345.6,-18.88889 L350.4,-30.694445 L355.2,-11.805555 L360,-9.444445 L364.8,-14.166667 L369.6,-2.3611112 L374.4,-7.0833335 L379.2,-7.0833335 L384,-2.3611112 L388.8,-7.0833335 L393.6,0 L398.4,0 L412.8,0 L432,0 L446.4,0" fill="none" stroke="#ff0000" stroke-linejoin="round" stroke-width="2"/>
</g>
</g>
<g transform="translate(380, -340)">
<text font-size="12" text-anchor="start" x="0" y="0">
5
</text>
<line stroke="#ff0000" stroke-width="2" x1="-10" x2="-3" y1="-4" y2="-4"/>
</g>
<g>
<g>
<path d="M100.8,0 L100.8,0 L120,0 L129.6,-9.444445 L134.4,-4.7222223 L139.2,-7.0833335 L144,-9.444445 L148.8,-11.805555 L153.6,-7.0833335 L158.4,-9.444445 L163.2,-18.88889 L168,-23.61111 L172.8,-23.61111 L177.6,-30.694445 L182.4,-47.22222 L187.2,-28.333334 L192,-51.944443 L196.8,-59.02778 L201.6,-73.19444 L206.4,-75.55556 L211.2,-89.72222 L216,-99.166664 L220.8,-94.44444 L225.6,-82.638885 L230.4,-96.80556 L235.2,-99.166664 L240,-87.361115 L244.8,-106.25 L249.6,-99.166664 L254.4,-96.80556 L259.2,-63.75 L264,-106.25 L268.8,-82.638885 L273.6,-87.361115 L278.4,-59.02778 L283.2,-66.111115 L288,-61.38889 L292.8,-40.13889 L297.6,-59.02778 L302.4,-47.22222 L307.2,-30.694445 L312,-28.333334 L316.8,-7.0833335 L321.6,-18.88889 L326.4,-9.444445 L331.2,-14.166667 L336,-2.3611112 L340.8,-9.444445 L345.6,0 L350.4,-4.7222223 L360,0 L364.8,0" fill="none" stroke="#00ff00" stroke-linejoin="round" stroke-width="2"/>
</g>
</g>
<g transform="translate(380, -322)">
<text font-size="12" text-anchor="start" x="0" y="0">
10
</text>
<line stroke="#00ff00" stroke-width="2" x1="-10" x2="-3" y1="-4" y2="-4"/>
</g>
<g>
<g>
<path d="M177.6,0 L177.6,0 L187.2,-4.7222223 L192,-9.444445 L196.8,-30.694445 L201.6,-28.333334 L206.4,-47.22222 L211.2,-66.111115 L216,-101.52778 L220.8,-162.91667 L225.6,-139.30556 L230.4,-170 L235.2,-236.11111 L240,-229.02777 L244.8,-236.11111 L249.6,-221.94444 L254.4,-186.52777 L259.2,-136.94444 L264,-132.22223 L268.8,-66.111115 L273.6,-63.75 L278.4,-16.527779 L283.2,-16.527779 L297.6,0 L302.4,0 L312,0" fill="none" stroke="#0000ff" stroke-linejoin="round" stroke-width="2"/>
</g>
</g>
<g transform="translate(380, -304)">
<text font-size="12" text-anchor="start" x="0" y="0">
50
</text>
<line stroke="#0000ff" stroke-width="2" x1="-10" x2="-3" y1="-4" y2="-4"/>
</g>
<g>
<g>
<path d="M201.6,-2.3611112 L201.6,-2.3611112 L206.4,-9.444445 L211.2,-23.61111 L216,-75.55556 L220.8,-132.22223 L225.6,-198.33333 L230.4,-217.22223 L235.2,-340 L240,-337.6389 L244.8,-283.33334 L249.6,-269.16666 L254.4,-219.58333 L259.2,-96.80556 L264,-68.47222 L268.8,-28.333334 L273.6,-11.805555 L278.4,-7.0833335" fill="none" stroke="#000000" stroke-linejoin="round" stroke-width="2"/>
</g>
</g>
<g transform="translate(380, -286)">
<text font-size="12" text-anchor="start" x="0" y="0">
100
</text>
<line stroke="#000000" stroke-width="2" x1="-10" x2="-3" y1="-4" y2="-4"/>
</g>
<g>
<g>
<line stroke="black" stroke-width="1" x1="0" x2="0" y1="0" y2="10"/>
<line stroke="black" stroke-width="1" x1="96" x2="96" y1="0" y2="10"/>
<line stroke="black" stroke-width="1" x1="192" x2="192" y1="0" y2="10"/>
<line stroke="black" stroke-width="1" x1="288" x2="288" y1="0" y2="10"/>
<line stroke="black" stroke-width="1" x1="384" x2="384" y1="0" y2="10"/>
<line stroke="black" stroke-width="1" x1="480" x2="480" y1="0" y2="10"/>
</g>
<line stroke="black" stroke-width="1" x1="0" x2="480" y1="0" y2="0"/>
<g>
<text font-size="12" text-anchor="middle" x="0" y="20">
0
</text>
<text font-size="12" text-anchor="middle" x="96" y="20">
20
</text>
<text font-size="12" text-anchor="middle" x="192" y="20">
40
</text>
<text font-size="12" text-anchor="middle" x="288" y="20">
60
</text>
<text font-size="12" text-anchor="middle" x="384" y="20">
80
</text>
<text font-size="12" text-anchor="middle" x="480" y="20">
100
</text>
</g>
<text font-size="12" text-anchor="middle" x="240" y="30">

</text>
</g>
<g>
<g>
<line stroke="black" stroke-width="1" x1="0" x2="-10" y1="0" y2="0"/>
<line stroke="black" stroke-width="1" x1="0" x2="-10" y1="-94.44444444444444" y2="-94.44444444444444"/>
<line stroke="black" stroke-width="1" x1="0" x2="-10" y1="-188.88888888888889" y2="-188.88888888888889"/>
<line stroke="black" stroke-width="1" x1="0" x2="-10" y1="-283.3333333333333" y2="-283.3333333333333"/>
</g>
<line stroke="black" stroke-width="1" x1="0" x2="0" y1="0" y2="-340"/>
<g>
<text dominant-baseline="middle" font-size="12" text-anchor="end" x="-15" y="0">
1
</text>
<text dominant-baseline="middle" font-size="12" text-anchor="end" x="-15" y="-94.44444444444444">
41
</text>
<text dominant-baseline="middle" font-size="12" text-anchor="end" x="-15" y="-188.88888888888889">
81
</text>
<text dominant-baseline="middle" font-size="12" text-anchor="end" x="-15" y="-283.3333333333333">
121
</text>
</g>
<text font-size="12" text-anchor="middle" transform="rotate(-90 -36 -170)" x="-36" y="-182">

</text>
</g>
</g>
</svg>