<svg viewBox="0 0 600 400" xmlns="http://www.w3.org/2000/svg">
<g transform="translate(72, 364)">
<g>
<g>
<path d="M0,-173.2649 L0,-173.2649 L0.4804805,-117.33428 L0.960961,-175.38298 L1.4414414,-190.32637 L1.921922,-204.3035 L2.4024024,-111.7154 L2.8828828,-172.0689 L3.3633633,-215.5915 L3.843844,-223.30464 L4.324324,-189.59885 L4.804805,-112.01029 L5.2852855,-132.13722 L5.7657657,-214.49301 L6.2462463,-147.27396 L6.7267265,-161.51106 L7.207207,-186.2655 L7.687688,-247.17351 L8.168168,-114.24999 L8.648648,-105.71822 L9.129129,-239.10901 L9.60961,-201.36363 L10.09009,-249.97794 L10.570571,-161.18526 L11.051051,-196.2242 L11.531531,-208.65413 L12.0120125,-245.85645 L12.492493,-164.88466 L12.972973,-198.69525 L13.453453,-159.36444 L13.933934,-277.40128 L14.414414,-219.3509 L14.894895,-173.408 L15.375376,-281.2303 L15.855856,-143.42152 L16.336336,-160.91138 L16.816816,-155.57318 L17.297297,-157.71783 L17.777779,-158.47758 L18.258259,-262.96432 L18.738739,-241.28444 L19.21922,-154.74165 L19.6997,-130.83954 L20.18018,-132.95792 L20.66066,-261.68558 L21.141142,-247.65451 L21.621622,-120.32846 L22.102102,-245.7416 L22.582582,-208.33018 L23.063063,-187.06442 L23.543543,-221.90689 L24.024025,-215.99026 L24.504505,-138.00223 L24.984985,-139.47453 L25.465466,-157.48492 L25.945946,-158.40712 L26.426426,-225.05179 L26.906906,-220.62073 L27.387388,-186.61116 L27.867868,-240.56154 L28.348349,-133.96214 L28.828829,-302.51395 L29.309309,-274.29034 L29.78979,-219.68143 L30.27027,-293.3664 L30.750751,-303.02283 L31.231232,-271.29962 L31.711712,-198.60349 L32.192192,-217.5581 L32.672672,-182.4622 L33.153152,-283.42416 L33.633633,-219.67604 L34.114113,-235.2123 L34.594593,-217.03029 L35.075073,-149.14696 L35.555557,-174.89656 L36.036037,-214.60553 L36.516518,-272.88153 L36.996998,-260.76407 L37.477478,-174.39038 L37.95796,-180.2032 L38.43844,-267.61697 L38.91892,-284.56332 L39.3994,-222.71317 L39.87988,-165.11098 L40.36036,-293.6617 L40.84084,-187.02138 L41.32132,-165.20201 L41.801804,-231.02675 L42.282284,-236.8788 L42.762764,-282.7171 L43.243244,-166.76187 L43.723724,-153.525 L44.204205,-188.0226 L44.684685,-316.70712 L45.165165,-167.41808 L45.645645,-270.8723 L46.126125,-158.66588 L46.606606,-165.75816 L47.087086,-256.72824 L47.567566,-277.9001 L48.04805,-325.91025 L48.52853,-167.79483 L49.00901,-207.84459 L49.48949,-224.79224 L49.96997,-217.55643 L50.45045,-160.4559 L50.93093,-195.62933 L51.41141,-294.3274 L51.89189,-213.99063 L52.37237,-215.5792 L52.85285,-253.61125 L53.333332,-300.99695 L53.813812,-242.6187 L54.294292,-286.27692 L54.774776,-215.84227 L55.255257,-315.56262 L55.735737,-175.09418 L56.216217,-217.40904 L56.696697,-285.4059 L57.177177,-226.14778 L57.657658,-238.55591 L58.138138,-317.42865 L58.618618,-224.81038 L59.0991,-175.0523 L59.57958,-184.58908 L60.06006,-181.75311 L60.54054,-264.81454 L61.021023,-292.30896 L61.501503,-298.56134 L61.981983,-250.77362 L62.462463,-212.83049 L62.942944,-198.6763 L63.423424,-320.66193 L63.903904,-220.5284 L64.384384,-326.25342 L64.86487,-272.58685 L65.345345,-222.43277 L65.82583,-171.2482 L66.306305,-303.3347 L66.78679,-263.42172 L67.267265,-192.12457 L67.74775,-315.40918 L68.228226,-232.46494 L68.70871,-222.66273 L69.189186,-332.78082 L69.66967,-311.64487 L70.15015,-231.11977 L70.63063,-245.1727 L71.111115,-305.1246 L71.59159,-173.05875 L72.072075,-280.30957 L72.55255,-294.2214 L73.033035,-325.8051 L73.51351,-186.79874 L73.993996,-324.42447 L74.47447,-236.32751 L74.954956,-257.29016 L75.43543,-293.35953 L75.91592,-268.10422 L76.39639,-226.43237 L76.87688,-320.92258 L77.35736,-187.63771 L77.83784,-323.61496 L78.31832,-226.79092 L78.7988,-332.24103 L79.27928,-299.77322 L79.75976,-222.56941 L80.24024,-274.69034 L80.72072,-325.89642 L81.2012,-210.00847 L81.68168,-261.25546 L82.16216,-197.3875 L82.64264,-177.84338 L83.12312,-318.79446 L83.60361,-204.93413 L84.08408,-257.55957 L84.56457,-181.65866 L85.045044,-275.7029 L85.52553,-298.92035 L86.006004,-217.05148 L86.48649,-264.15906 L86.966965,-210.36723 L87.44745,-269.4382 L87.927925,-186.38206 L88.40841,-253.14787 L88.888885,-261.99545 L89.36937,-307.10156 L89.84985,-173.94246 L90.33033,-170.81235 L90.810814,-294.62088 L91.29129,-245.12494 L91.771774,-324.72058 L92.25225,-324.05872 L92.732735,-326.76895 L93.21321,-332.79895 L93.693695,-196.38199 L94.17417,-230.66089 L94.654655,-310.77994 L95.13513,-175.10828 L95.615616,-197.41864 L96.0961,-291.87592 L96.57658,-177.97275 L97.05706,-242.66116 L97.53754,-184.56393 L98.01802,-178.3022 L98.4985,-181.72487 L98.97898,-205.62384 L99.45946,-195.6281 L99.93994,-165.46039 L100.42042,-248.11438 L100.9009,-165.84862 L101.38138,-315.70825 L101.86186,-294.7315 L102.34234,-207.65947 L102.82282,-267.6311 L103.30331,-197.58524 L103.78378,-254.3804 L104.26427,-210.58215 L104.74474,-205.25575 L105.22523,-241.73201 L105.7057,-269.6406 L106.18619,-221.2187 L106.666664,-168.07361 L107.14715,-320.24597 L107.627625,-266.80005 L108.10811,-297.943 L108.588585,-279.5807 L109.06907,-164.13826 L109.54955,-164.34074 L110.03003,-220.9349 L110.51051,-269.66718 L110.99099,-316.88373 L111.47147,-214.24022 L111.95195,-147.71423 L112.432434,-294.68665 L112.91291,-207.72627 L113.393394,-235.66518 L113.87387,-166.00156 L114.354355,-143.87926 L114.83483,-147.17038 L115.315315,-195.67018 L115.7958,-153.40004 L116.276276,-261.39267 L116.75676,-277.1338 L117.237236,-197.95471 L117.71772,-298.49298 L118.1982,-306.03473 L118.67868,-195.1076 L119.15916,-287.60776 L119.63964,-253.05908 L120.12012,-228.71867 L120.6006,-156.48758 L121.08108,-250.31293 L121.56156,-187.67764 L122.042046,-255.54259 L122.52252,-172.7806 L123.003006,-287.05765 L123.48348,-205.09012 L123.96397,-215.75424 L124.44444,-247.00006 L124.92493,-285.86026 L125.4054,-262.66983 L125.88589,-296.00433 L126.36636,-156.3969 L126.84685,-139.05919 L127.327324,-252.67961 L127.80781,-214.46974 L128.28828,-177.17126 L128.76877,-251.09198 L129.24925,-279.08865 L129.72974,-215.48663 L130.2102,-229.045 L130.69069,-238.6911 L131.17117,-139.12245 L131.65166,-160.12924 L132.13213,-261.68503 L132.61261,-119.588005 L133.0931,-155.72934 L133.57358,-246.264 L134.05405,-185.90309 L134.53453,-173.95445 L135.01501,-188.45238 L135.4955,-232.58878 L135.97598,-110.66138 L136.45645,-149.03456 L136.93694,-220.35146 L137.41742,-202.15399 L137.8979,-239.55284 L138.37837,-211.23795 L138.85886,-217.12479 L139.33934,-210.1911 L139.81982,-192.1257 L140.3003,-170.65118 L140.78078,-272.35117 L141.26126,-269.97293 L141.74174,-187.09032 L142.22223,-112.92722 L142.7027,-159.81082 L143.18318,-164.06749 L143.66367,-213.8956 L144.14415,-219.01965 L144.62462,-200.423 L145.1051,-189.31723 L145.58559,-263.88617 L146.06607,-212.69191 L146.54654,-155.2978 L147.02702,-189.13564 L147.5075,-130.51714 L147.98799,-116.91548 L148.46848,-152.4574 L148.94894,-201.58878 L149.42943,-255.28792 L149.90991,-229.12032 L150.3904,-144.65085 L150.87086,-189.35918 L151.35135,-92.61454 L151.83183,-157.19888 L152.31232,-248.05623 L152.79279,-217.267 L153.27327,-119.63824 L153.75375,-89.45609 L154.23424,-92.3248 L154.71472,-153.10725 L155.19519,-228.30957 L155.67567,-223.12775 L156.15616,-135.4986 L156.63664,-234.88048 L157.11711,-134.2407 L157.5976,-110.45931 L158.07808,-92.19176 L158.55856,-104.59537 L159.03903,-107.57367 L159.51952,-172.60771 L160,-154.69983 L160.48048,-89.00665 L160.96097,-158.39174 L161.44144,-96.529594 L161.92192,-129.90495 L162.4024,-197.00539 L162.88289,-199.02856 L163.36336,-226.83542 L163.84384,-152.01889 L164.32433,-171.75491 L164.80481,-223.94778 L165.28528,-181.46648 L165.76576,-151.59369 L166.24625,-212.78586 L166.72673,-61.12205 L167.20721,-220.58882 L167.68768,-116.148926 L168.16817,-184.61627 L168.64865,-59.797653 L169.12914,-187.4608 L169.6096,-86.963196 L170.09009,-190.60747 L170.57057,-182.87875 L171.05106,-136.0697 L171.53152,-53.089233 L172.01201,-106.26333 L172.4925,-113.58709 L172.97298,-216.03021 L173.45346,-143.52237 L173.93393,-141.55211 L174.41441,-138.87917 L174.8949,-158.00574 L175.37538,-56.455837 L175.85585,-85.76886 L176.33633,-126.42634 L176.81682,-113.89242 L177.2973,-84.03668 L177.77777,-93.07732 L178.25826,-49.385986 L178.73874,-201.27635 L179.21922,-84.00819 L179.6997,-181.94363 L180.18018,-164.00296 L180.66066,-87.12803 L181.14114,-61.369114 L181.62163,-172.82335 L182.1021,-129.92342 L182.58258,-130.54271 L183.06306,-163.77603 L183.54355,-70.75984 L184.02402,-164.27466 L184.5045,-155.81401 L184.98499,-126.95807 L185.46547,-29.960258 L185.94595,-178.89882 L186.42642,-169.92567 L186.9069,-50.963337 L187.38739,-145.57372 L187.86787,-77.94023 L188.34834,-145.03996 L188.82883,-146.19653 L189.30931,-173.5991 L189.7898,-76.66927 L190.27026,-118.0225 L190.75075,-103.81293 L191.23123,-161.4089 L191.71172,-135.82986 L192.1922,-24.327835 L192.67267,-35.69152 L193.15315,-57.019554 L193.63364,-87.093864 L194.11412,-159.60773 L194.59459,-158.17593 L195.07507,-66.47444 L195.55556,-102.58175 L196.03604,-30.312542 L196.51651,-105.161964 L196.997,-152.67723 L197.47748,-180.65062 L197.95796,-141.78088 L198.43845,-81.17647 L198.91891,-77.91701 L199.3994,-169.8035 L199.87988,-70.005806 L200.36037,-116.18003 L200.84084,-105.46973 L201.32132,-66.59412 L201.8018,-170.16539 L202.28229,-43.412304 L202.76276,-47.660343 L203.24324,-43.01183 L203.72372,-28.367733 L204.20421,-176.59943 L204.68468,-86.662186 L205.16516,-52.163162 L205.64565,-160.56714 L206.12613,-127.345406 L206.60661,-141.50713 L207.08708,-133.89139 L207.56757,-123.985855 L208.04805,-30.02562 L208.52853,-125.463524 L209.009,-17.50417 L209.48949,-50.057972 L209.96997,-62.293922 L210.45045,-51.624676 L210.93092,-28.213926 L211.4114,-4.7596726 L211.89189,-77.04196 L212.37238,-58.25149 L212.85286,-81.238846 L213.33333,-60.525562 L213.81381,-51.891525 L214.2943,-20.021603 L214.77478,-82.942665 L215.25525,-2.809356 L215.73573,-125.27978 L216.21622,-133.91759 L216.6967,-150.1468 L217.17717,-118.888596 L217.65765,-11.841782 L218.13814,-149.983 L218.61862,-169.99184 L219.0991,-159.22438 L219.57957,-142.91087 L220.06006,-67.26315 L220.54054,-63.98437 L221.02103,-21.149248 L221.5015,-75.74032 L221.98198,-126.8983 L222.46246,-85.7389 L222.94295,-125.71293 L223.42342,-41.345463 L223.9039,-87.67615 L224.38438,-112.32629 L224.86487,-33.208035 L225.34535,-166.31284 L225.82582,-106.9697 L226.3063,-148.06049 L226.78679,-122.90394 L227.26727,-142.11577 L227.74774,-118.61107 L228.22823,-68.2327 L228.70871,-38.71949 L229.1892,-100.90338 L229.66966,-129.40019 L230.15015,-38.129982 L230.63063,0 L231.11111,-165.00923 L231.5916,-80.97365 L232.07207,-168.35777 L232.55255,-75.75156 L233.03304,-159.32042 L233.51352,-98.595116 L233.99399,-33.338863 L234.47447,-139.86502 L234.95496,-71.58784 L235.43544,-96.50892 L235.91591,-69.96746 L236.3964,-26.794086 L236.87688,-62.16149 L237.35736,-29.826603 L237.83784,-154.69063 L238.31831,-42.04426 L238.7988,-129.91705 L239.27928,-132.39963 L239.75977,-122.1154 L240.24023,-22.00339 L240.72072,-80.77683 L241.2012,-103.17818 L241.68169,-156.03358 L242.16216,-131.02206 L242.64264,-116.73402 L243.12312,-85.87892 L243.6036,-137.0904 L244.08409,-26.218191 L244.56456,-103.16639 L245.04504,-65.73376 L245.52553,-162.48996 L246.00601,-78.148735 L246.48648,-34.944702 L246.96696,-60.632793 L247.44745,-143.44574 L247.92793,-18.720469 L248.4084,-154.9968 L248.88889,-79.241196 L249.36937,-34.31247 L249.84985,-140.38458 L250.33034,-151.9317 L250.8108,-170.63231 L251.29129,-69.34161 L251.77177,-15.856595 L252.25226,-164.54253 L252.73273,-59.19576 L253.21321,-76.40405 L253.6937,-40.83881 L254.17418,-96.50732 L254.65465,-155.5972 L255.13513,-179.07214 L255.61562,-164.65535 L256.0961,-39.247845 L256.57657,-46.458908 L257.05707,-174.829 L257.53754,-46.268307 L258.018,-179.15654 L258.4985,-17.946188 L258.97897,-137.5257 L259.45947,-67.97061 L259.93994,-67.419426 L260.4204,-104.16774 L260.9009,-72.7249 L261.38138,-42.466644 L261.86185,-132.08899 L262.34235,-154.84245 L262.8228,-68.548615 L263.3033,-177.28598 L263.78378,-128.11351 L264.26425,-173.38272 L264.74475,-192.5926 L265.22522,-125.9307 L265.70572,-67.75434 L266.1862,-150.89264 L266.66666,-118.69702 L267.14716,-45.515827 L267.62762,-195.93791 L268.1081,-73.39001 L268.5886,-131.64603 L269.06906,-165.30933 L269.54956,-78.52779 L270.03003,-152.85335 L270.5105,-152.84286 L270.991,-108.70312 L271.47147,-47.00778 L271.95197,-113.25936 L272.43243,-99.159546 L272.9129,-193.7698 L273.3934,-45.911015 L273.87387,-173.24303 L274.35434,-204.46335 L274.83484,-62.692883 L275.3153,-107.45943 L275.7958,-103.77078 L276.27628,-130.78232 L276.75674,-111.492485 L277.23724,-114.52237 L277.7177,-202.45566 L278.1982,-43.599518 L278.67868,-96.21524 L279.15915,-192.88571 L279.63965,-138.48862 L280.12012,-82.98063 L280.6006,-161.94955 L281.0811,-116.39383 L281.56155,-177.43149 L282.04205,-164.8591 L282.52252,-105.76351 L283.003,-57.2891 L283.4835,-193.06757 L283.96396,-94.068474 L284.44446,-169.6596 L284.92493,-118.58033 L285.4054,-70.940285 L285.8859,-108.245316 L286.36636,-159.61636 L286.84683,-87.05247 L287.32733,-141.26225 L287.8078,-196.71358 L288.2883,-129.08246 L288.76877,-104.35879 L289.24924,-167.06335 L289.72974,-204.03207 L290.2102,-127.936874 L290.6907,-161.0068 L291.17117,-123.06276 L291.65164,-97.43741 L292.13214,-232.91887 L292.6126,-235.11714 L293.09308,-111.52785 L293.57358,-79.485435 L294.05405,-72.970406 L294.53455,-164.41049 L295.015,-179.79185 L295.49548,-96.75801 L295.97598,-171.0397 L296.45645,-177.40459 L296.93695,-200.92592 L297.41742,-170.91211 L297.8979,-110.37676 L298.3784,-108.24238 L298.85886,-79.71196 L299.33932,-129.56754 L299.81982,-147.57857 L300.3003,-207.01234 L300.7808,-201.69446 L301.26126,-216.55374 L301.74173,-183.84781 L302.22223,-239.46774 L302.7027,-119.1532 L303.1832,-198.86513 L303.66367,-157.73308 L304.14413,-236.90569 L304.62463,-240.00394 L305.1051,-126.20318 L305.58557,-232.12648 L306.06607,-230.20894 L306.54654,-191.88695 L307.02704,-97.88925 L307.5075,-110.911514 L307.98798,-258.9473 L308.46848,-94.49111 L308.94894,-112.84236 L309.42944,-167.7806 L309.9099,-113.52562 L310.39038,-258.17032 L310.87088,-173.49052 L311.35135,-249.40865 L311.83182,-214.16032 L312.31232,-165.02383 L312.7928,-145.2451 L313.2733,-129.37408 L313.75375,-271.85782 L314.23422,-178.11539 L314.71472,-131.48607 L315.1952,-194.75836 L315.6757,-191.77051 L316.15616,-192.87393 L316.63663,-267.04047 L317.11713,-185.80052 L317.5976,-198.7476 L318.07806,-157.9981 L318.55856,-172.55017 L319.03903,-141.72066 L319.51953,-201.70071 L320,-253.5836 L320.48047,-186.95923 L320.96097,-213.27003 L321.44144,-282.78006 L321.92194,-130.4128 L322.4024,-170.11252 L322.88287,-234.10205 L323.36337,-147.40205 L323.84384,-129.11902 L324.3243,-134.83235 L324.8048,-222.45587 L325.28528,-284.0552 L325.76578,-279.4293 L326.24625,-168.92337 L326.7267,-255.7688 L327.2072,-274.90723 L327.68768,-231.76987 L328.16818,-187.45287 L328.64865,-219.10936 L329.12912,-151.69211 L329.60962,-252.53282 L330.0901,-200.6281 L330.57056,-268.86966 L331.05106,-167.6133 L331.53152,-210.64925 L332.01202,-173.67047 L332.4925,-206.25587 L332.97296,-221.17511 L333.45346,-300.0012 L333.93393,-182.27164 L334.41443,-303.9983 L334.8949,-205.48677 L335.37537,-270.31592 L335.85587,-171.42613 L336.33633,-199.3891 L336.8168,-210.57957 L337.2973,-303.60962 L337.77777,-283.68903 L338.25827,-300.1894 L338.73874,-175.73257 L339.2192,-195.7497 L339.6997,-270.5116 L340.18018,-171.09166 L340.66068,-145.26016 L341.14114,-293.43362 L341.6216,-248.88477 L342.1021,-163.02953 L342.58258,-256.38223 L343.06305,-267.09833 L343.54355,-174.0637 L344.02402,-188.50842 L344.50452,-316.52853 L344.985,-169.29793 L345.46545,-190.19774 L345.94595,-251.15556 L346.42642,-252.05592 L346.90692,-314.01004 L347.3874,-196.61087 L347.86786,-300.06265 L348.34836,-229.05115 L348.82883,-183.25594 L349.3093,-203.17885 L349.7898,-216.9044 L350.27026,-318.76718 L350.75076,-297.58267 L351.23123,-311.60574 L351.7117,-296.36346 L352.1922,-328.23648 L352.67267,-218.14563 L353.15317,-277.50446 L353.63364,-304.38052 L354.1141,-182.3403 L354.5946,-240.51729 L355.07507,-220.35869 L355.55554,-314.46707 L356.03604,-179.71785 L356.5165,-170.11267 L356.997,-242.25374 L357.47748,-208.99173 L357.95795,-191.29185 L358.43845,-181.9592 L358.9189,-275.52332 L359.3994,-292.1158 L359.87988,-258.67365 L360.36035,-311.4229 L360.84085,-225.21596 L361.32132,-324.1415 L361.8018,-173.59433 L362.2823,-250.0659 L362.76276,-327.66748 L363.24326,-255.79906 L363.72372,-227.27937 L364.2042,-297.3797 L364.6847,-264.52988 L365.16516,-279.20126 L365.64566,-285.3313 L366.12613,-205.14766 L366.6066,-294.21674 L367.0871,-170.87146 L367.56757,-168.57236 L368.04803,-225.68393 L368.52853,-169.26398 L369.009,-320.93262 L369.4895,-316.21692 L369.96997,-240.6217 L370.45044,-297.06967 L370.93094,-256.38788 L371.4114,-273.2111 L371.8919,-191.6631 L372.37238,-333.07254 L372.85284,-261.7507 L373.33334,-318.26218 L373.8138,-247.72719 L374.29428,-238.10306 L374.77478,-326.22687 L375.25525,-256.98438 L375.73575,-207.34753 L376.21622,-340 L376.6967,-202.9216 L377.1772,-218.40164 L377.65765,-222.40218 L378.13815,-256.0852 L378.61862,-254.71846 L379.0991,-229.98291 L379.5796,-244.30316 L380.06006,-265.8064 L380.54053,-298.97482 L381.02103,-202.51859 L381.5015,-265.3196 L381.982,-189.08862 L382.46246,-194.42389 L382.94293,-209.41139 L383.42343,-277.42578 L383.9039,-235.82835 L384.3844,-207.19038 L384.86487,-325.07974 L385.34534,-181.24217 L385.82584,-277.8202 L386.3063,-338.71326 L386.78677,-334.83008 L387.26727,-229.8114 L387.74774,-251.35661 L388.22824,-253.69073 L388.7087,-295.5734 L389.18918,-178.07785 L389.66968,-277.5078 L390.15015,-206.1078 L390.63065,-315.9964 L391.1111,-222.78802 L391.59158,-266.6116 L392.07208,-254.96393 L392.55255,-263.23117 L393.03302,-224.74503 L393.51352,-291.8572 L393.994,-275.78482 L394.4745,-217.73938 L394.95496,-271.1131 L395.43542,-301.4128 L395.91592,-307.35913 L396.3964,-226.0839 L396.8769,-328.52145 L397.35736,-311.58054 L397.83783,-231.85918 L398.31833,-255.1295 L398.7988,-220.07007 L399.27927,-320.14084 L399.75977,-259.3336 L400.24023,-184.4646 L400.72073,-250.7049 L401.2012,-163.69868 L401.68167,-239.25305 L402.16217,-212.7688 L402.64264,-219.022 L403.1231,-255.08327 L403.6036,-160.50002 L404.08408,-184.67328 L404.56458,-160.92612 L405.04504,-185.90846 L405.5255,-201.37251 L406.006,-299.9722 L406.48648,-227.60599 L406.96698,-180.7544 L407.44745,-319.32898 L407.92792,-303.4247 L408.40842,-260.47754 L408.8889,-192.94221 L409.36935,-299.52823 L409.84985,-176.13159 L410.33032,-276.5975 L410.81082,-176.36339 L411.2913,-276.84515 L411.77176,-295.7318 L412.25226,-313.88016 L412.73273,-207.95035 L413.21323,-197.46805 L413.6937,-187.93488 L414.17416,-236.99153 L414.65466,-242.67917 L415.13513,-146.69713 L415.6156,-306.54355 L416.0961,-170.294 L416.57657,-239.97766 L417.05707,-154.65997 L417.53754,-168.947 L418.018,-278.04718 L418.4985,-213.02411 L418.97897,-142.68779 L419.45947,-237.00406 L419.93994,-199.13239 L420.4204,-174.70645 L420.9009,-140.82768 L421.38138,-264.1877 L421.86185,-279.07883 L422.34235,-221.70601 L422.8228,-234.18703 L423.3033,-244.54729 L423.78378,-248.8929 L424.26425,-280.68454 L424.74475,-288.18985 L425.22522,-279.31848 L425.70572,-203.4566 L426.1862,-160.9975 L426.66666,-137.40111 L427.14716,-194.67064 L427.62762,-248.55667 L428.1081,-185.59708 L428.5886,-203.30411 L429.06906,-144.0017 L429.54956,-145.34892 L430.03003,-263.4045 L430.5105,-222.33913 L430.991,-282.28354 L431.47147,-216.76318 L431.95197,-166.53502 L432.43243,-156.00899 L432.9129,-132.7611 L433.3934,-264.2528 L433.87387,-205.92537 L434.35434,-231.25365 L434.83484,-162.553 L435.3153,-285.30048 L435.7958,-252.60486 L436.27628,-268.38974 L436.75674,-256.1721 L437.23724,-119.22645 L437.7177,-146.9867 L438.1982,-276.55746 L438.67868,-194.1354 L439.15915,-127.69839 L439.63965,-253.7081 L440.12012,-159.59013 L440.6006,-219.40211 L441.0811,-163.81422 L441.56155,-115.36005 L442.04205,-256.46985 L442.52252,-151.66026 L443.003,-148.831 L443.4835,-149.95456 L443.96396,-147.22174 L444.44446,-228.01878 L444.92493,-246.52252 L445.4054,-248.99733 L445.8859,-191.27974 L446.36636,-133.0795 L446.84683,-145.8759 L447.32733,-189.21988 L447.8078,-205.0603 L448.2883,-227.94853 L448.76877,-238.99757 L449.24924,-203.5949 L449.72974,-243.93965 L450.2102,-244.7382 L450.6907,-165.78024 L451.17117,-193.04648 L451.65164,-116.677826 L452.13214,-136.26865 L452.6126,-234.18872 L453.09308,-146.75208 L453.57358,-221.61539 L454.05405,-110.67431 L454.53455,-151.80995 L455.015,-179.3588 L455.49548,-113.11175 L455.97598,-215.01599 L456.45645,-207.8177 L456.93695,-217.29575 L457.41742,-206.75908 L457.8979,-210.66367 L458.3784,-185.3335 L458.85886,-133.80771 L459.33932,-95.34923 L459.81982,-190.1601 L460.3003,-226.92776 L460.7808,-134.20894 L461.26126,-227.80028 L461.74173,-139.9559 L462.22223,-128.86937 L462.7027,-141.58978 L463.1832,-139.85902 L463.66367,-133.53429 L464.14413,-205.08548 L464.62463,-100.409164 L465.1051,-188.41055 L465.58557,-146.13748 L466.06607,-76.27327 L466.54654,-163.97252 L467.02704,-69.6086 L467.5075,-85.413864 L467.98798,-87.537285 L468.46848,-181.39177 L468.94894,-161.04056 L469.42944,-105.81771 L469.9099,-207.70506 L470.39038,-199.11517 L470.87088,-106.41344 L471.35135,-120.23021 L471.83182,-180.36736 L472.31232,-203.55383 L472.7928,-76.38278 L473.2733,-161.2304 L473.75375,-145.4151 L474.23422,-79.31244 L474.71472,-212.06491 L475.1952,-68.65247 L475.6757,-215.5896 L476.15616,-95.49261 L476.63663,-103.94378 L477.11713,-119.27602 L477.5976,-195.0213 L478.07806,-182.63658 L478.55856,-191.37321 L479.03903,-184.50291 L479.51953,-40.488777 L480,-74.931564" fill="none" stroke="#DDDDDD" stroke-linejoin="round" stroke-width="2"/>
</g>
</g>
<g>
<g>
<line stroke="black" stroke-width="1" x1="0" x2="0" y1="0" y2="10"/>
<line stroke="black" stroke-width="1" x1="96.09609609609609" x2="96.09609609609609" y1="0" y2="10"/>
<line stroke="black" stroke-width="1" x1="192.19219219219218" x2="192.19219219219218" y1="0" y2="10"/>
<line stroke="black" stroke-width="1" x1="288.2882882882883" x2="288.2882882882883" y1="0" y2="10"/>
<line stroke="black" stroke-width="1" x1="384.38438438438436" x2="384.38438438438436" y1="0" y2="10"/>
</g>
<line stroke="black" stroke-width="1" x1="0" x2="480" y1="0" y2="0"/>
<g>
<text font-size="12" text-anchor="middle" x="0" y="20">
0
</text>
<text font-size="12" text-anchor="middle" x="96.09609609609609" y="20">
200
</text>
<text font-size="12" text-anchor="middle" x="192.19219219219218" y="20">
400
</text>
<text font-size="12" text-anchor="middle" x="288.2882882882883" y="20">
600
</text>
<text font-size="12" text-anchor="middle" x="384.38438438438436" y="20">
800
</text>
</g>
<text font-size="12" text-anchor="middle" x="240" y="30">

</text>
</g>
<g>
<g>
<line stroke="black" stroke-width="1" x1="0" x2="-10" y1="-0.000006445417859020045" y2="-0.000006445417859020045"/>
<line stroke="black" stroke-width="1" x1="0" x2="-10" y1="-86.1985430868934" y2="-86.1985430868934"/>
<line stroke="black" stroke-width="1" x1="0" x2="-10" y1="-172.39707972836894" y2="-172.39707972836894"/>
<line stroke="black" stroke-width="1" x1="0" x2="-10" y1="-258.5956163698445" y2="-258.5956163698445"/>
</g>
<line stroke="black" stroke-width="1" x1="0" x2="0" y1="0" y2="-340"/>
<g>
<text dominant-baseline="middle" font-size="12" text-anchor="end" x="-15" y="-0.000006445417859020045">
10.81787
</text>
<text dominant-baseline="middle" font-size="12" text-anchor="end" x="-15" y="-86.1985430868934">
30.81787
</text>
<text dominant-baseline="middle" font-size="12" text-anchor="end" x="-15" y="-172.39707972836894">
50.81787
</text>
<text dominant-baseline="middle" font-size="12" text-anchor="end" x="-15" y="-258.5956163698445">
70.81787
</text>
</g>
<text font-size="12" text-anchor="middle" transform="rotate(-90 -96 -170)" x="-96" y="-182">

</text>
</g>
</g>
</svg>